<svg width="28" height="29" viewBox="0 0 28 29" fill="none" xmlns="http://www.w3.org/2000/svg">
<rect y="0.734375" width="28" height="28" rx="5" fill="#E1DEE1"/>
<path d="M13.9999 14.3644C13.5085 14.3644 13.0371 14.1691 12.6895 13.8216C12.342 13.474 12.1468 13.0027 12.1468 12.5112C12.1468 12.0197 12.342 11.5483 12.6895 11.2008C13.0371 10.8532 13.5085 10.658 13.9999 10.658C14.4914 10.658 14.9628 10.8532 15.3103 11.2008C15.6579 11.5483 15.8531 12.0197 15.8531 12.5112C15.8531 12.7545 15.8052 12.9955 15.7121 13.2204C15.6189 13.4452 15.4824 13.6495 15.3103 13.8216C15.1383 13.9937 14.934 14.1302 14.7091 14.2233C14.4843 14.3164 14.2433 14.3644 13.9999 14.3644ZM13.9999 7.32227C12.6238 7.32227 11.3039 7.86895 10.3308 8.84206C9.35772 9.81517 8.81104 11.135 8.81104 12.5112C8.81104 16.4029 13.9999 22.1477 13.9999 22.1477C13.9999 22.1477 19.1889 16.4029 19.1889 12.5112C19.1889 11.135 18.6422 9.81517 17.6691 8.84206C16.696 7.86895 15.3761 7.32227 13.9999 7.32227Z" fill="#21B495"/>
</svg>
