<svg width="15" height="17" viewBox="0 0 15 17" fill="none" xmlns="http://www.w3.org/2000/svg">
<path d="M13.2093 11.3679L11.2298 11.1096C10.997 11.0784 10.7611 11.1078 10.5397 11.1958C10.3184 11.2837 10.1173 11.4278 9.95166 11.6173L8.51766 13.2562C6.30541 11.97 4.5072 9.91488 3.38177 7.38657L4.82356 5.7388C5.15868 5.35581 5.32234 4.8214 5.26779 4.27808L5.04178 2.03355C4.99776 1.59897 4.81535 1.1981 4.52933 0.907358C4.24331 0.616612 3.87367 0.456319 3.49088 0.457034H2.14261C1.26195 0.457034 0.529363 1.29428 0.583918 2.30075C0.996971 9.90721 6.31991 15.9817 12.9677 16.4538C13.8484 16.5161 14.581 15.6789 14.581 14.6724V13.1315C14.5888 12.2319 13.9965 11.4748 13.2093 11.3679Z" fill="white"/>
</svg>
