<svg width="17" height="13" viewBox="0 0 17 13" fill="none" xmlns="http://www.w3.org/2000/svg">
<path d="M1.81094 12.0293C1.37094 12.0293 0.994404 11.8825 0.681338 11.589C0.368271 11.2955 0.211471 10.9423 0.210938 10.5293V1.5293C0.210938 1.1168 0.367738 0.763797 0.681338 0.470297C0.994937 0.176797 1.37147 0.0297969 1.81094 0.0292969H14.6109C15.0509 0.0292969 15.4277 0.176297 15.7413 0.470297C16.0549 0.764297 16.2115 1.1173 16.2109 1.5293V10.5293C16.2109 10.9418 16.0544 11.295 15.7413 11.589C15.4283 11.883 15.0515 12.0298 14.6109 12.0293H1.81094ZM8.21094 6.7793L14.6109 3.0293V1.5293L8.21094 5.2793L1.81094 1.5293V3.0293L8.21094 6.7793Z" fill="white"/>
</svg>
