<svg width="86" height="25" viewBox="0 0 86 25" fill="none" xmlns="http://www.w3.org/2000/svg">
<path d="M8.5307 7.21492C8.52879 6.54214 7.9793 5.99324 7.30962 5.99516L1.22153 6.01255C0.551837 6.01446 0.00546743 6.56649 0.00737156 7.23927L0.0350681 17.0252C0.0369722 17.698 0.586458 18.2469 1.25615 18.245L7.34424 18.2276C8.01393 18.2257 8.5603 17.6736 8.55839 17.0009L8.56532 19.4473L9.78293 19.4439L9.74139 4.76496L8.52377 4.76844L8.5307 7.21492ZM1.25269 17.0217L1.22499 7.23579L7.31308 7.2184L7.34077 17.0043L1.25269 17.0217Z" fill="white"/>
<path d="M3.55495 15.8206L3.55061 14.2268L3.76192 14.2262L3.76374 14.8963L5.66551 14.8911L5.6662 15.1447L3.76443 15.1499L3.76625 15.82L3.55495 15.8206ZM5.44793 12.5836L5.65924 12.583L5.66291 13.9354L3.54984 13.9412L3.54616 12.5888L3.75747 12.5882L3.76046 13.687L4.48494 13.6851L4.48241 12.7553L4.69372 12.7547L4.69625 13.6845L5.45092 13.6824L5.44793 12.5836ZM3.93294 10.5077L3.93362 10.7613L3.87627 10.7615C3.84608 10.7615 3.82697 10.7636 3.81893 10.7677C3.80887 10.7697 3.79683 10.7798 3.78279 10.7979C3.76875 10.8161 3.76074 10.8302 3.75875 10.8403C3.75476 10.8503 3.75281 10.8735 3.75291 10.9097L3.75494 11.6583C3.75504 11.6946 3.75711 11.7177 3.76117 11.7278C3.76321 11.7378 3.7713 11.7519 3.78543 11.77C3.79957 11.788 3.81167 11.7991 3.82175 11.8031C3.8298 11.805 3.84892 11.806 3.87911 11.8059L5.32204 11.802C5.35222 11.8019 5.37235 11.8008 5.3824 11.7988C5.39044 11.7947 5.40148 11.7836 5.41552 11.7655C5.42956 11.7473 5.43857 11.7332 5.44257 11.7231C5.44456 11.7131 5.4455 11.6899 5.4454 11.6537L5.44337 10.9051C5.44327 10.8688 5.4422 10.8457 5.44016 10.8357C5.43611 10.8256 5.42701 10.8115 5.41288 10.7935C5.39874 10.7754 5.38764 10.7654 5.37959 10.7634C5.36952 10.7594 5.34939 10.7574 5.3192 10.7575L5.26184 10.7577L5.26115 10.5041L5.3819 10.5038C5.44228 10.5036 5.49265 10.5276 5.53303 10.5758L5.5936 10.6481C5.63398 10.6963 5.65424 10.7445 5.65437 10.7928L5.65701 11.7648C5.65714 11.8131 5.63715 11.8615 5.59703 11.9099L5.53686 11.9825C5.49674 12.0309 5.44649 12.0552 5.38612 12.0554L3.81641 12.0597C3.75603 12.0598 3.70566 12.0358 3.66528 11.9876L3.6047 11.9153C3.56432 11.8672 3.54407 11.8189 3.54394 11.7706L3.54129 10.7986C3.54116 10.7503 3.56116 10.7019 3.60127 10.6535L3.66145 10.5809C3.70157 10.5325 3.75181 10.5082 3.81219 10.5081L3.93294 10.5077ZM3.53561 8.70639L3.53492 8.45283L5.64799 8.44703L5.64868 8.7006L4.66761 8.70329L4.6706 9.80209L5.65167 9.7994L5.65236 10.053L3.53928 10.0588L3.53859 9.80519L4.47438 9.80263L4.4714 8.70383L3.53561 8.70639Z" fill="white"/>
<ellipse cx="0.168601" cy="0.16938" rx="0.168601" ry="0.16938" transform="matrix(0.999996 -0.00274362 0.00271845 0.999996 0.491699 11.6963)" fill="white"/>
<path d="M20.3576 6.62012L14.8684 11.8706C14.6209 12.1073 14.6311 12.5057 14.8903 12.7295L20.5449 17.6108" stroke="#138A71" stroke-width="2.37131" stroke-linecap="round"/>
<path d="M10.7471 0.915039H8.84211C8.47127 0.915039 8.17065 1.21566 8.17065 1.5865C8.17065 1.95733 8.47127 2.25795 8.84211 2.25795H11.57L11.6993 10.6953V12.1608V13.557L11.57 21.9822H8.85077C8.4734 21.9822 8.16748 22.2881 8.16748 22.6655C8.16748 23.0428 8.4734 23.3487 8.85077 23.3487H10.7C13.1038 23.3487 13.1038 23.3487 13.1038 21.0967V3.08846C13.1038 0.915039 13.1038 0.915039 10.7471 0.915039Z" fill="#71C8B6"/>
<path d="M26.7039 2.25589H27.5331V5.31609H28.5992L30.0898 2.91729C30.182 2.75934 30.3004 2.63101 30.4452 2.5323L30.6328 2.40397C30.7381 2.33157 30.8104 2.2888 30.8499 2.27564C30.896 2.26247 30.9783 2.25589 31.0967 2.25589H31.3139V2.64089C31.3139 2.79225 31.304 2.88768 31.2843 2.92716C31.2645 2.96665 31.1954 3.0193 31.077 3.08511L30.9684 3.14434C30.8631 3.20357 30.794 3.24963 30.7611 3.28254C30.7282 3.31544 30.6755 3.38784 30.6031 3.49971L29.4185 5.41481C29.3198 5.57933 29.2376 5.6616 29.1718 5.6616V5.70108C29.2376 5.70108 29.3198 5.78006 29.4185 5.938L30.6722 7.92219C30.7381 8.03407 30.7874 8.10646 30.8203 8.13937C30.8598 8.17227 30.9322 8.21834 31.0375 8.27757L31.1461 8.3368C31.2645 8.40261 31.3336 8.45526 31.3534 8.49475C31.3731 8.53423 31.383 8.62966 31.383 8.78102V9.16602H31.1066C30.9881 9.16602 30.9059 9.15943 30.8598 9.14627C30.8203 9.13311 30.7479 9.09033 30.6426 9.01794L30.4551 8.88961C30.3564 8.81722 30.2905 8.76457 30.2576 8.73167C30.2247 8.69218 30.1721 8.61321 30.0997 8.49475L28.5597 6.0071H27.5331V9.16602H26.7039V2.25589ZM35.9944 8.77115H35.9549C35.9549 8.85012 35.8825 8.93239 35.7378 9.01794C35.6193 9.09033 35.537 9.13311 35.491 9.14627C35.4515 9.15943 35.3725 9.16602 35.2541 9.16602H33.566C33.4081 9.16602 33.2501 9.1002 33.0922 8.96858L32.8553 8.77115C32.6973 8.63953 32.6183 8.475 32.6183 8.27757V7.09298C32.6183 6.89555 32.6973 6.73102 32.8553 6.5994L33.0922 6.40197C33.2501 6.27035 33.4081 6.20453 33.566 6.20453H35.333C35.4581 6.20453 35.537 6.21112 35.5699 6.22428C35.6029 6.23086 35.6456 6.25718 35.6983 6.30325C35.7773 6.36906 35.8167 6.43487 35.8167 6.50068H35.8562V5.32596C35.8562 5.22725 35.8496 5.16473 35.8365 5.1384C35.8299 5.1055 35.797 5.06601 35.7378 5.01994C35.6785 4.97387 35.6325 4.94755 35.5996 4.94097C35.5667 4.92781 35.491 4.92123 35.3725 4.92123H33.7733C33.6549 4.92123 33.5726 4.9311 33.5265 4.95084C33.487 4.964 33.4081 5.01994 33.2896 5.11866L32.6973 4.62508L32.9342 4.42765C33.0527 4.32893 33.1317 4.27299 33.1711 4.25983C33.2172 4.24009 33.2995 4.23021 33.4179 4.23021H35.7378C35.8957 4.23021 36.0537 4.29602 36.2116 4.42765L36.4485 4.62508C36.6065 4.7567 36.6854 4.92123 36.6854 5.11866V8.07027C36.6854 8.16898 36.6887 8.23479 36.6953 8.2677C36.7085 8.29402 36.7447 8.33022 36.8039 8.37629C36.8631 8.42235 36.896 8.46184 36.9026 8.49475C36.9158 8.52107 36.9224 8.58359 36.9224 8.68231V9.16602H36.5769C36.4584 9.16602 36.3761 9.15943 36.3301 9.14627C36.2906 9.12653 36.2313 9.08375 36.1524 9.01794C36.0471 8.93239 35.9944 8.85012 35.9944 8.77115ZM33.4476 7.30028V8.07027C33.4476 8.16898 33.4508 8.23479 33.4574 8.2677C33.4706 8.29402 33.5068 8.33022 33.566 8.37629C33.6252 8.42235 33.6713 8.45197 33.7042 8.46513C33.7371 8.47171 33.8128 8.475 33.9313 8.475H35.1356C35.2541 8.475 35.333 8.46842 35.3725 8.45526C35.4186 8.4421 35.5008 8.39932 35.6193 8.32693C35.7378 8.25454 35.8069 8.20189 35.8266 8.16898C35.8464 8.13608 35.8562 8.07027 35.8562 7.97155V7.30028C35.8562 7.20157 35.8496 7.13905 35.8365 7.11272C35.8299 7.07982 35.797 7.04033 35.7378 6.99426C35.6785 6.9482 35.6325 6.92187 35.5996 6.91529C35.5667 6.90213 35.491 6.89555 35.3725 6.89555H33.9313C33.8128 6.89555 33.7371 6.90213 33.7042 6.91529C33.6713 6.92187 33.6252 6.9482 33.566 6.99426C33.5068 7.04033 33.4706 7.07982 33.4574 7.11272C33.4508 7.13905 33.4476 7.20157 33.4476 7.30028ZM42.0497 4.70405H42.0892C42.0958 4.64482 42.1583 4.57243 42.2768 4.48687L42.4249 4.37829C42.5433 4.3059 42.6223 4.26312 42.6618 4.24996C42.7078 4.23679 42.7901 4.23021 42.9086 4.23021H44.4781C44.6361 4.23021 44.794 4.29602 44.952 4.42765L45.1889 4.62508C45.3468 4.7567 45.4258 4.92123 45.4258 5.11866V9.16602H44.5966V5.32596C44.5966 5.22725 44.59 5.16473 44.5769 5.1384C44.5703 5.1055 44.5374 5.06601 44.4781 5.01994C44.4189 4.97387 44.3728 4.94755 44.3399 4.94097C44.307 4.92781 44.2314 4.92123 44.1129 4.92123H43.027C42.9086 4.92123 42.8263 4.92781 42.7802 4.94097C42.7407 4.95413 42.6618 4.99691 42.5433 5.0693C42.3919 5.16143 42.313 5.24699 42.3064 5.32596V9.16602H41.4772V5.32596C41.4772 5.22725 41.4706 5.16473 41.4574 5.1384C41.4509 5.1055 41.4179 5.06601 41.3587 5.01994C41.2995 4.97387 41.2534 4.94755 41.2205 4.94097C41.1876 4.92781 41.1119 4.92123 40.9935 4.92123H39.9964C39.878 4.92123 39.7957 4.92781 39.7496 4.94097C39.7102 4.95413 39.6312 4.99691 39.5127 5.0693C39.3943 5.14169 39.3252 5.19434 39.3054 5.22725C39.2857 5.26015 39.2758 5.32596 39.2758 5.42468V9.16602H38.4466V5.32596C38.4466 5.22725 38.44 5.16473 38.4269 5.1384C38.4203 5.1055 38.3874 5.06601 38.3281 5.01994C38.2689 4.97387 38.2327 4.93768 38.2195 4.91135C38.213 4.87845 38.2097 4.81264 38.2097 4.71392V4.23021H38.5552C38.6736 4.23021 38.7526 4.24009 38.7921 4.25983C38.8382 4.27299 38.9007 4.31248 38.9797 4.37829C39.085 4.46384 39.1376 4.5461 39.1376 4.62508H39.1771C39.1771 4.5461 39.2495 4.46384 39.3943 4.37829C39.5127 4.3059 39.5917 4.26312 39.6312 4.24996C39.6773 4.23679 39.7595 4.23021 39.878 4.23021H41.3587C41.5167 4.23021 41.6746 4.29602 41.8326 4.42765C41.9708 4.55269 42.0431 4.64482 42.0497 4.70405ZM46.7544 1.86103H47.5836V7.93207C47.5836 8.08343 47.5902 8.17886 47.6034 8.21834C47.6165 8.25125 47.6626 8.29402 47.7416 8.34667C47.8271 8.41248 47.8765 8.46513 47.8896 8.50462C47.9094 8.53752 47.9192 8.62966 47.9192 8.78102V9.16602H47.6231C47.4981 9.16602 47.4158 9.15943 47.3763 9.14627C47.3368 9.13311 47.2677 9.09362 47.169 9.02781L46.9518 8.87974C46.8531 8.81393 46.7939 8.76128 46.7741 8.72179C46.761 8.68231 46.7544 8.58688 46.7544 8.43552V1.86103ZM52.7272 8.77115H52.6877C52.6877 8.85012 52.6153 8.93239 52.4705 9.01794C52.3521 9.09033 52.2698 9.13311 52.2237 9.14627C52.1842 9.15943 52.1053 9.16602 51.9868 9.16602H50.2988C50.1408 9.16602 49.9829 9.1002 49.8249 8.96858L49.588 8.77115C49.4301 8.63953 49.3511 8.475 49.3511 8.27757V7.09298C49.3511 6.89555 49.4301 6.73102 49.588 6.5994L49.8249 6.40197C49.9829 6.27035 50.1408 6.20453 50.2988 6.20453H52.0658C52.1908 6.20453 52.2698 6.21112 52.3027 6.22428C52.3356 6.23086 52.3784 6.25718 52.431 6.30325C52.51 6.36906 52.5495 6.43487 52.5495 6.50068H52.589V5.32596C52.589 5.22725 52.5824 5.16473 52.5692 5.1384C52.5627 5.1055 52.5297 5.06601 52.4705 5.01994C52.4113 4.97387 52.3652 4.94755 52.3323 4.94097C52.2994 4.92781 52.2237 4.92123 52.1053 4.92123H50.5061C50.3876 4.92123 50.3053 4.9311 50.2593 4.95084C50.2198 4.964 50.1408 5.01994 50.0224 5.11866L49.4301 4.62508L49.667 4.42765C49.7854 4.32893 49.8644 4.27299 49.9039 4.25983C49.95 4.24009 50.0322 4.23021 50.1507 4.23021H52.4705C52.6285 4.23021 52.7864 4.29602 52.9444 4.42765L53.1813 4.62508C53.3392 4.7567 53.4182 4.92123 53.4182 5.11866V8.07027C53.4182 8.16898 53.4215 8.23479 53.4281 8.2677C53.4412 8.29402 53.4774 8.33022 53.5367 8.37629C53.5959 8.42235 53.6288 8.46184 53.6354 8.49475C53.6485 8.52107 53.6551 8.58359 53.6551 8.68231V9.16602H53.3096C53.1911 9.16602 53.1089 9.15943 53.0628 9.14627C53.0233 9.12653 52.9641 9.08375 52.8851 9.01794C52.7798 8.93239 52.7272 8.85012 52.7272 8.77115ZM50.1803 7.30028V8.07027C50.1803 8.16898 50.1836 8.23479 50.1902 8.2677C50.2033 8.29402 50.2395 8.33022 50.2988 8.37629C50.358 8.42235 50.4041 8.45197 50.437 8.46513C50.4699 8.47171 50.5456 8.475 50.664 8.475H51.8683C51.9868 8.475 52.0658 8.46842 52.1053 8.45526C52.1513 8.4421 52.2336 8.39932 52.3521 8.32693C52.4705 8.25454 52.5396 8.20189 52.5594 8.16898C52.5791 8.13608 52.589 8.07027 52.589 7.97155V7.30028C52.589 7.20157 52.5824 7.13905 52.5692 7.11272C52.5627 7.07982 52.5297 7.04033 52.4705 6.99426C52.4113 6.9482 52.3652 6.92187 52.3323 6.91529C52.2994 6.90213 52.2237 6.89555 52.1053 6.89555H50.664C50.5456 6.89555 50.4699 6.90213 50.437 6.91529C50.4041 6.92187 50.358 6.9482 50.2988 6.99426C50.2395 7.04033 50.2033 7.07982 50.1902 7.11272C50.1836 7.13905 50.1803 7.20157 50.1803 7.30028ZM54.9424 4.23021H55.2879C55.4064 4.23021 55.4854 4.24009 55.5249 4.25983C55.5709 4.27299 55.6334 4.31248 55.7124 4.37829C55.8177 4.46384 55.8704 4.5461 55.8704 4.62508H55.9098C55.9098 4.5461 55.9822 4.46384 56.127 4.37829C56.2455 4.3059 56.3245 4.26312 56.3639 4.24996C56.41 4.23679 56.4923 4.23021 56.6107 4.23021H58.358C58.516 4.23021 58.6739 4.29602 58.8318 4.42765L59.0688 4.62508C59.2267 4.7567 59.3057 4.92123 59.3057 5.11866V9.16602H58.4765V5.32596C58.4765 5.22725 58.4699 5.16473 58.4567 5.1384C58.4501 5.1055 58.4172 5.06601 58.358 5.01994C58.2988 4.97387 58.2527 4.94755 58.2198 4.94097C58.1869 4.92781 58.1112 4.92123 57.9928 4.92123H56.7292C56.6107 4.92123 56.5285 4.92781 56.4824 4.94097C56.4429 4.95413 56.3639 4.99691 56.2455 5.0693C56.127 5.14169 56.0579 5.19434 56.0382 5.22725C56.0184 5.26015 56.0086 5.32596 56.0086 5.42468V9.16602H55.1793V5.32596C55.1793 5.22725 55.1728 5.16473 55.1596 5.1384C55.153 5.1055 55.1201 5.06601 55.0609 5.01994C55.0017 4.97387 54.9655 4.93768 54.9523 4.91135C54.9457 4.87845 54.9424 4.81264 54.9424 4.71392V4.23021ZM61.453 9.16602H60.6238V4.23021H61.453V9.16602ZM61.5418 2.69024V2.76922C61.5418 2.89426 61.5352 2.97323 61.5221 3.00613C61.5155 3.03904 61.4859 3.07853 61.4332 3.12459C61.3806 3.17724 61.2588 3.20357 61.068 3.20357H61.0186C60.8738 3.20357 60.785 3.20028 60.7521 3.1937C60.7192 3.18711 60.6797 3.16408 60.6336 3.12459C60.5876 3.07853 60.558 3.03904 60.5448 3.00613C60.5382 2.97323 60.5349 2.89426 60.5349 2.76922V2.69024C60.5349 2.5652 60.5382 2.48623 60.5448 2.45332C60.558 2.42042 60.5909 2.38093 60.6435 2.33487C60.683 2.29538 60.7192 2.27235 60.7521 2.26576C60.785 2.25918 60.8738 2.25589 61.0186 2.25589H61.0581C61.2556 2.25589 61.3839 2.28222 61.4431 2.33487C61.4892 2.38093 61.5155 2.42042 61.5221 2.45332C61.5352 2.48623 61.5418 2.5652 61.5418 2.69024ZM62.8243 1.86103H63.6535V7.93207C63.6535 8.08343 63.6601 8.17886 63.6732 8.21834C63.6864 8.25125 63.7325 8.29402 63.8114 8.34667C63.897 8.41248 63.9464 8.46513 63.9595 8.50462C63.9793 8.53752 63.9891 8.62966 63.9891 8.78102V9.16602H63.693C63.5679 9.16602 63.4857 9.15943 63.4462 9.14627C63.4067 9.13311 63.3376 9.09362 63.2389 9.02781L63.0217 8.87974C62.923 8.81393 62.8638 8.76128 62.844 8.72179C62.8309 8.68231 62.8243 8.58688 62.8243 8.43552V1.86103Z" fill="white"/>
<path d="M25.8812 14.5498H31.0934V15.2408H28.9019V21.46H28.0727V15.2408H25.8812V14.5498ZM35.4428 20.5715L36.0351 21.0651L35.7982 21.2625C35.6798 21.3612 35.5975 21.4205 35.5514 21.4402C35.5119 21.4534 35.433 21.46 35.3145 21.46H32.6788C32.5208 21.46 32.3629 21.3942 32.2049 21.2625L31.968 21.0651C31.8101 20.9335 31.7311 20.7689 31.7311 20.5715V17.4126C31.7311 17.2152 31.8101 17.0506 31.968 16.919L32.2049 16.7216C32.3629 16.59 32.5208 16.5242 32.6788 16.5242H34.9789C35.1105 16.5242 35.2684 16.59 35.4527 16.7216L35.6995 16.919C35.8574 17.0375 35.9364 17.202 35.9364 17.4126V19.4363H32.5603V20.3642C32.5603 20.4629 32.5636 20.5287 32.5702 20.5616C32.5834 20.588 32.6196 20.6242 32.6788 20.6702C32.738 20.7163 32.7841 20.7459 32.817 20.7591C32.8499 20.7657 32.9256 20.7689 33.044 20.7689H34.9591C35.0776 20.7689 35.1566 20.7624 35.196 20.7492C35.2421 20.7295 35.3244 20.6702 35.4428 20.5715ZM35.1072 18.7946V17.6199C35.1072 17.5212 35.1006 17.4587 35.0875 17.4323C35.0809 17.3994 35.048 17.36 34.9887 17.3139C34.9295 17.2678 34.8834 17.2415 34.8505 17.2349C34.8176 17.2218 34.7419 17.2152 34.6235 17.2152H33.044C32.9256 17.2152 32.8499 17.2218 32.817 17.2349C32.7841 17.2415 32.738 17.2678 32.6788 17.3139C32.6196 17.36 32.5834 17.3994 32.5702 17.4323C32.5636 17.4587 32.5603 17.5212 32.5603 17.6199V18.7946H35.1072ZM41.1674 17.8075H40.3381V17.6199C40.3381 17.5212 40.3316 17.4587 40.3184 17.4323C40.3118 17.3994 40.2789 17.36 40.2197 17.3139C40.1605 17.2678 40.1144 17.2415 40.0815 17.2349C40.0486 17.2218 39.9729 17.2152 39.8544 17.2152H38.5316C38.4132 17.2152 38.3375 17.2218 38.3046 17.2349C38.2717 17.2415 38.2256 17.2678 38.1664 17.3139C38.1072 17.36 38.071 17.3994 38.0578 17.4323C38.0512 17.4587 38.0479 17.5212 38.0479 17.6199V20.3642C38.0479 20.4629 38.0512 20.5287 38.0578 20.5616C38.071 20.588 38.1072 20.6242 38.1664 20.6702C38.2256 20.7163 38.2717 20.7459 38.3046 20.7591C38.3375 20.7657 38.4132 20.7689 38.5316 20.7689H39.8544C39.9729 20.7689 40.0486 20.7657 40.0815 20.7591C40.1144 20.7459 40.1605 20.7163 40.2197 20.6702C40.2789 20.6242 40.3118 20.588 40.3184 20.5616C40.3316 20.5287 40.3381 20.4629 40.3381 20.3642V20.1767H41.1674V20.5715C41.1674 20.7689 41.0884 20.9335 40.9304 21.0651L40.6935 21.2625C40.5356 21.3942 40.3776 21.46 40.2197 21.46H38.1664C38.0084 21.46 37.8505 21.3942 37.6926 21.2625L37.4556 21.0651C37.2977 20.9335 37.2187 20.7689 37.2187 20.5715V17.4126C37.2187 17.2152 37.2977 17.0506 37.4556 16.919L37.6926 16.7216C37.8505 16.59 38.0084 16.5242 38.1664 16.5242H40.2197C40.3776 16.5242 40.5356 16.59 40.6935 16.7216L40.9304 16.919C41.0884 17.0506 41.1674 17.2152 41.1674 17.4126V17.8075ZM43.8588 16.5242H45.5864C45.7443 16.5242 45.9023 16.59 46.0602 16.7216L46.2971 16.919C46.4551 17.0506 46.534 17.2152 46.534 17.4126V21.46H45.7048V17.6199C45.7048 17.5212 45.6982 17.4587 45.6851 17.4323C45.6785 17.3994 45.6456 17.36 45.5864 17.3139C45.5271 17.2678 45.4811 17.2415 45.4482 17.2349C45.4153 17.2218 45.3396 17.2152 45.2211 17.2152H43.9576C43.8325 17.2152 43.747 17.2218 43.7009 17.2349C43.6614 17.2481 43.5824 17.2909 43.464 17.3632C43.3455 17.4356 43.2764 17.4883 43.2567 17.5212C43.2369 17.5541 43.2271 17.6199 43.2271 17.7186V21.46H42.3978V14.155H43.2271V16.9881H43.2665C43.2665 16.9289 43.3389 16.8368 43.4837 16.7117C43.6285 16.5867 43.7535 16.5242 43.8588 16.5242ZM47.818 16.5242H48.1635C48.2819 16.5242 48.3609 16.534 48.4004 16.5538C48.4465 16.5669 48.509 16.6064 48.588 16.6722C48.6933 16.7578 48.7459 16.8401 48.7459 16.919H48.7854C48.7854 16.8401 48.8578 16.7578 49.0026 16.6722C49.121 16.5998 49.2 16.5571 49.2395 16.5439C49.2855 16.5307 49.3678 16.5242 49.4863 16.5242H51.2335C51.3915 16.5242 51.5494 16.59 51.7074 16.7216L51.9443 16.919C52.1022 17.0506 52.1812 17.2152 52.1812 17.4126V21.46H51.352V17.6199C51.352 17.5212 51.3454 17.4587 51.3323 17.4323C51.3257 17.3994 51.2928 17.36 51.2335 17.3139C51.1743 17.2678 51.1282 17.2415 51.0953 17.2349C51.0624 17.2218 50.9868 17.2152 50.8683 17.2152H49.6047C49.4863 17.2152 49.404 17.2218 49.3579 17.2349C49.3185 17.2481 49.2395 17.2909 49.121 17.3632C49.0026 17.4356 48.9335 17.4883 48.9137 17.5212C48.894 17.5541 48.8841 17.6199 48.8841 17.7186V21.46H48.0549V17.6199C48.0549 17.5212 48.0483 17.4587 48.0351 17.4323C48.0286 17.3994 47.9957 17.36 47.9364 17.3139C47.8772 17.2678 47.841 17.2316 47.8278 17.2053C47.8213 17.1724 47.818 17.1066 47.818 17.0079V16.5242ZM54.4174 16.5242H56.7866C56.9445 16.5242 57.1024 16.59 57.2604 16.7216L57.4973 16.919C57.6553 17.0506 57.7342 17.2152 57.7342 17.4126V20.5715C57.7342 20.7689 57.6553 20.9335 57.4973 21.0651L57.2604 21.2625C57.1024 21.3942 56.9445 21.46 56.7866 21.46H54.4174C54.2594 21.46 54.1015 21.3942 53.9435 21.2625L53.7066 21.0651C53.5487 20.9335 53.4697 20.7689 53.4697 20.5715V17.4126C53.4697 17.2152 53.5487 17.0506 53.7066 16.919L53.9435 16.7216C54.1015 16.59 54.2594 16.5242 54.4174 16.5242ZM56.905 20.3642V17.6199C56.905 17.5212 56.8984 17.4587 56.8853 17.4323C56.8787 17.3994 56.8458 17.36 56.7866 17.3139C56.7273 17.2678 56.6813 17.2415 56.6483 17.2349C56.6154 17.2218 56.5398 17.2152 56.4213 17.2152H54.7826C54.6642 17.2152 54.5885 17.2218 54.5556 17.2349C54.5227 17.2415 54.4766 17.2678 54.4174 17.3139C54.3581 17.36 54.3219 17.3994 54.3088 17.4323C54.3022 17.4587 54.2989 17.5212 54.2989 17.6199V20.3642C54.2989 20.4629 54.3022 20.5287 54.3088 20.5616C54.3219 20.588 54.3581 20.6242 54.4174 20.6702C54.4766 20.7163 54.5227 20.7459 54.5556 20.7591C54.5885 20.7657 54.6642 20.7689 54.7826 20.7689H56.4213C56.5398 20.7689 56.6154 20.7657 56.6483 20.7591C56.6813 20.7459 56.7273 20.7163 56.7866 20.6702C56.8458 20.6242 56.8787 20.588 56.8853 20.5616C56.8984 20.5287 56.905 20.4629 56.905 20.3642ZM59.0739 14.155H59.9031V20.226C59.9031 20.3774 59.9097 20.4728 59.9229 20.5123C59.936 20.5452 59.9821 20.588 60.0611 20.6406C60.1466 20.7064 60.196 20.7591 60.2091 20.7986C60.2289 20.8315 60.2388 20.9236 60.2388 21.075V21.46H59.9426C59.8176 21.46 59.7353 21.4534 59.6958 21.4402C59.6563 21.4271 59.5872 21.3876 59.4885 21.3218L59.2713 21.1737C59.1726 21.1079 59.1134 21.0552 59.0937 21.0157C59.0805 20.9763 59.0739 20.8808 59.0739 20.7295V14.155ZM62.5294 16.5242H64.8986C65.0566 16.5242 65.2145 16.59 65.3725 16.7216L65.6094 16.919C65.7673 17.0506 65.8463 17.2152 65.8463 17.4126V20.5715C65.8463 20.7689 65.7673 20.9335 65.6094 21.0651L65.3725 21.2625C65.2145 21.3942 65.0566 21.46 64.8986 21.46H62.5294C62.3715 21.46 62.2135 21.3942 62.0556 21.2625L61.8187 21.0651C61.6607 20.9335 61.5818 20.7689 61.5818 20.5715V17.4126C61.5818 17.2152 61.6607 17.0506 61.8187 16.919L62.0556 16.7216C62.2135 16.59 62.3715 16.5242 62.5294 16.5242ZM65.0171 20.3642V17.6199C65.0171 17.5212 65.0105 17.4587 64.9973 17.4323C64.9908 17.3994 64.9578 17.36 64.8986 17.3139C64.8394 17.2678 64.7933 17.2415 64.7604 17.2349C64.7275 17.2218 64.6518 17.2152 64.5334 17.2152H62.8947C62.7762 17.2152 62.7005 17.2218 62.6676 17.2349C62.6347 17.2415 62.5887 17.2678 62.5294 17.3139C62.4702 17.36 62.434 17.3994 62.4208 17.4323C62.4143 17.4587 62.411 17.5212 62.411 17.6199V20.3642C62.411 20.4629 62.4143 20.5287 62.4208 20.5616C62.434 20.588 62.4702 20.6242 62.5294 20.6702C62.5887 20.7163 62.6347 20.7459 62.6676 20.7591C62.7005 20.7657 62.7762 20.7689 62.8947 20.7689H64.5334C64.6518 20.7689 64.7275 20.7657 64.7604 20.7591C64.7933 20.7459 64.8394 20.7163 64.8986 20.6702C64.9578 20.6242 64.9908 20.588 64.9973 20.5616C65.0105 20.5287 65.0171 20.4629 65.0171 20.3642ZM68.4495 20.7689H69.8612C70.0191 20.7689 70.1771 20.7031 70.335 20.5715C70.493 20.4399 70.5719 20.3083 70.5719 20.1767V17.7186C70.5719 17.6199 70.5621 17.5541 70.5423 17.5212C70.5226 17.4883 70.4535 17.4356 70.335 17.3632C70.2166 17.2909 70.1343 17.2481 70.0882 17.2349C70.0487 17.2218 69.9698 17.2152 69.8513 17.2152H68.4495C68.3311 17.2152 68.2554 17.2218 68.2225 17.2349C68.1896 17.2415 68.1435 17.2678 68.0843 17.3139C68.0251 17.36 67.9889 17.3994 67.9757 17.4323C67.9691 17.4587 67.9658 17.5212 67.9658 17.6199V20.3642C67.9658 20.4629 67.9691 20.5287 67.9757 20.5616C67.9889 20.588 68.0251 20.6242 68.0843 20.6702C68.1435 20.7163 68.1896 20.7459 68.2225 20.7591C68.2554 20.7657 68.3311 20.7689 68.4495 20.7689ZM67.7487 23.3356H70.0882C70.2067 23.3356 70.2824 23.329 70.3153 23.3158C70.3482 23.3092 70.3942 23.2829 70.4535 23.2368C70.5127 23.1908 70.5456 23.1513 70.5522 23.1184C70.5654 23.0921 70.5719 23.0295 70.5719 22.9308V20.9861H70.5325C70.5193 21.0454 70.4403 21.1375 70.2955 21.2625C70.1376 21.3942 69.9796 21.46 69.8217 21.46H68.0843C67.9263 21.46 67.7684 21.3942 67.6105 21.2625L67.3735 21.0651C67.2156 20.9335 67.1366 20.7689 67.1366 20.5715V17.4126C67.1366 17.2152 67.2156 17.0506 67.3735 16.919L67.6105 16.7216C67.7684 16.59 67.9263 16.5242 68.0843 16.5242H69.9698C70.0882 16.5242 70.1672 16.5307 70.2067 16.5439C70.2528 16.5571 70.335 16.5998 70.4535 16.6722C70.5983 16.7578 70.6707 16.8401 70.6707 16.919H70.7101C70.7101 16.8401 70.7628 16.7578 70.8681 16.6722C70.9471 16.6064 71.0063 16.5669 71.0458 16.5538C71.0918 16.534 71.1741 16.5242 71.2926 16.5242H71.6381V17.0079C71.6381 17.1066 71.6315 17.1724 71.6183 17.2053C71.6117 17.2316 71.5788 17.2678 71.5196 17.3139C71.4604 17.36 71.4242 17.3994 71.411 17.4323C71.4044 17.4587 71.4012 17.5212 71.4012 17.6199V23.1381C71.4012 23.3356 71.3222 23.5001 71.1642 23.6317L70.9273 23.8291C70.7694 23.9608 70.6114 24.0266 70.4535 24.0266H67.571V23.7699C67.571 23.6186 67.5776 23.5231 67.5907 23.4836C67.6105 23.4507 67.6631 23.4014 67.7487 23.3356ZM73.7918 21.46H72.9626V16.5242H73.7918V21.46ZM73.8806 14.9842V15.0632C73.8806 15.1882 73.874 15.2672 73.8609 15.3001C73.8543 15.333 73.8247 15.3725 73.772 15.4185C73.7194 15.4712 73.5976 15.4975 73.4068 15.4975H73.3574C73.2126 15.4975 73.1238 15.4942 73.0909 15.4876C73.058 15.4811 73.0185 15.458 72.9724 15.4185C72.9264 15.3725 72.8968 15.333 72.8836 15.3001C72.877 15.2672 72.8737 15.1882 72.8737 15.0632V14.9842C72.8737 14.8591 72.877 14.7802 72.8836 14.7473C72.8968 14.7144 72.9297 14.6749 72.9823 14.6288C73.0218 14.5893 73.058 14.5663 73.0909 14.5597C73.1238 14.5531 73.2126 14.5498 73.3574 14.5498H73.3969C73.5943 14.5498 73.7227 14.5762 73.7819 14.6288C73.828 14.6749 73.8543 14.7144 73.8609 14.7473C73.874 14.7802 73.8806 14.8591 73.8806 14.9842ZM78.8254 20.5715L79.4177 21.0651L79.1808 21.2625C79.0624 21.3612 78.9801 21.4205 78.934 21.4402C78.8945 21.4534 78.8156 21.46 78.6971 21.46H76.0614C75.9035 21.46 75.7455 21.3942 75.5876 21.2625L75.3506 21.0651C75.1927 20.9335 75.1137 20.7689 75.1137 20.5715V17.4126C75.1137 17.2152 75.1927 17.0506 75.3506 16.919L75.5876 16.7216C75.7455 16.59 75.9035 16.5242 76.0614 16.5242H78.3615C78.4931 16.5242 78.651 16.59 78.8353 16.7216L79.0821 16.919C79.2401 17.0375 79.319 17.202 79.319 17.4126V19.4363H75.9429V20.3642C75.9429 20.4629 75.9462 20.5287 75.9528 20.5616C75.966 20.588 76.0022 20.6242 76.0614 20.6702C76.1206 20.7163 76.1667 20.7459 76.1996 20.7591C76.2325 20.7657 76.3082 20.7689 76.4266 20.7689H78.3417C78.4602 20.7689 78.5392 20.7624 78.5787 20.7492C78.6247 20.7295 78.707 20.6702 78.8254 20.5715ZM78.4898 18.7946V17.6199C78.4898 17.5212 78.4832 17.4587 78.4701 17.4323C78.4635 17.3994 78.4306 17.36 78.3714 17.3139C78.3121 17.2678 78.2661 17.2415 78.2332 17.2349C78.2002 17.2218 78.1246 17.2152 78.0061 17.2152H76.4266C76.3082 17.2152 76.2325 17.2218 76.1996 17.2349C76.1667 17.2415 76.1206 17.2678 76.0614 17.3139C76.0022 17.36 75.966 17.3994 75.9528 17.4323C75.9462 17.4587 75.9429 17.5212 75.9429 17.6199V18.7946H78.4898ZM83.7405 18.5972C83.8984 18.5972 84.0564 18.663 84.2143 18.7946L84.4513 18.9921C84.6092 19.1237 84.6882 19.2882 84.6882 19.4856V20.5715C84.6882 20.7689 84.6092 20.9335 84.4513 21.0651L84.2143 21.2625C84.0564 21.3942 83.8984 21.46 83.7405 21.46H81.549C81.3911 21.46 81.2331 21.3942 81.0752 21.2625L80.8383 21.0651C80.6803 20.9335 80.6013 20.7689 80.6013 20.5715V20.1767H81.4305V20.3642C81.4305 20.4629 81.4338 20.5287 81.4404 20.5616C81.4536 20.588 81.4898 20.6242 81.549 20.6702C81.6082 20.7163 81.6543 20.7459 81.6872 20.7591C81.7201 20.7657 81.7958 20.7689 81.9143 20.7689H83.3753C83.4937 20.7689 83.5694 20.7657 83.6023 20.7591C83.6352 20.7459 83.6813 20.7163 83.7405 20.6702C83.7997 20.6242 83.8326 20.588 83.8392 20.5616C83.8524 20.5287 83.859 20.4629 83.859 20.3642V19.5646C83.8524 19.512 83.8129 19.4527 83.7405 19.3869C83.6813 19.3409 83.6352 19.3145 83.6023 19.308C83.5694 19.2948 83.4937 19.2882 83.3753 19.2882H81.6477C81.4898 19.2882 81.3318 19.2224 81.1739 19.0908L80.937 18.8933C80.779 18.7617 80.7 18.5972 80.7 18.3998V17.4126C80.7 17.2152 80.779 17.0506 80.937 16.919L81.1739 16.7216C81.3318 16.59 81.4898 16.5242 81.6477 16.5242H83.7405C83.8984 16.5242 84.0564 16.59 84.2143 16.7216L84.4513 16.919C84.6092 17.0506 84.6882 17.2152 84.6882 17.4126V17.8075H83.859V17.6199C83.859 17.5212 83.8524 17.4587 83.8392 17.4323C83.8326 17.3994 83.7997 17.36 83.7405 17.3139C83.6813 17.2678 83.6352 17.2415 83.6023 17.2349C83.5694 17.2218 83.4937 17.2152 83.3753 17.2152H82.013C81.8945 17.2152 81.8188 17.2218 81.7859 17.2349C81.753 17.2415 81.707 17.2678 81.6477 17.3139C81.5885 17.36 81.5523 17.3994 81.5391 17.4323C81.5326 17.4587 81.5293 17.5212 81.5293 17.6199V18.1925C81.5293 18.2912 81.5326 18.357 81.5391 18.3899C81.5523 18.4162 81.5885 18.4524 81.6477 18.4985C81.707 18.5445 81.753 18.5742 81.7859 18.5873C81.8188 18.5939 81.8945 18.5972 82.013 18.5972H83.7405Z" fill="white"/>
</svg>
